<?xml version="1.0" standalone="no"?>
<!DOCTYPE svg PUBLIC "-//W3C//DTD SVG 20010904//EN"
 "http://www.w3.org/TR/2001/REC-SVG-20010904/DTD/svg10.dtd">
<svg version="1.0" xmlns="http://www.w3.org/2000/svg"
 width="2400.000000pt" height="780.000000pt" viewBox="0 0 2400.000000 780.000000">
<g transform="translate(0.000000,780.000000) scale(0.100000,-0.100000)"
fill="#4655ff" stroke="none">
<path d="M3597 6969 c-330 -27 -565 -181 -788 -518 -176 -266 -274 -557 -300
-892 -12 -169 -26 -215 -79 -263 -43 -39 -49 -40 -276 -84 -173 -33 -325 -79
-482 -143 -290 -121 -393 -229 -487 -512 -63 -192 -164 -554 -176 -637 -24
-164 3 -377 72 -585 66 -196 234 -502 388 -704 l59 -77 4 -135 c3 -133 4 -138
40 -210 58 -116 59 -123 73 -324 l13 -190 -26 -27 c-39 -42 -43 -120 -8 -171
27 -40 28 -65 1 -87 -22 -18 -18 -32 6 -25 l22 7 -21 -28 c-11 -16 -62 -76
-114 -133 -182 -204 -198 -228 -198 -303 0 -38 23 -103 41 -114 5 -3 50 11
101 30 129 47 220 60 386 53 149 -6 260 -28 400 -77 48 -17 91 -32 96 -33 5
-1 14 16 20 38 30 112 145 205 336 271 36 13 66 29 68 37 5 24 -38 66 -102 97
-50 25 -84 33 -162 41 -275 25 -462 87 -587 193 -46 38 -49 43 -44 79 8 55 -9
101 -48 136 -42 37 -51 71 -64 246 -9 113 -6 349 5 383 2 8 19 0 50 -24 192
-146 617 -237 1179 -253 l230 -6 3 -50 c3 -52 3 -52 -63 -141 -9 -12 -19 -41
-23 -65 -7 -41 -14 -49 -97 -112 -55 -41 -150 -97 -243 -144 -94 -46 -171 -92
-200 -118 l-47 -43 50 -6 c132 -17 337 -87 590 -203 131 -60 140 -63 152 -46
52 74 125 119 250 155 71 21 98 23 315 23 273 0 255 -10 190 104 l-37 65 -112
32 c-62 18 -157 52 -210 76 -113 51 -292 154 -298 171 -2 7 -6 28 -9 48 -4 21
-18 54 -32 75 -24 35 -26 43 -19 111 l7 73 86 46 c302 162 435 242 588 357
383 287 578 650 561 1047 -10 259 -82 439 -326 815 -71 110 -150 232 -176 271
-59 92 -172 211 -305 322 -89 75 -110 98 -139 155 -30 58 -34 76 -34 140 0 57
5 82 22 113 46 81 111 106 409 155 197 32 206 33 320 21 211 -21 478 -103 584
-179 67 -48 229 -118 346 -149 77 -20 133 -27 273 -33 176 -8 176 -8 256 -45
86 -41 125 -43 156 -8 43 50 22 117 -63 194 -61 56 -126 98 -385 248 -289 168
-474 298 -601 424 -87 87 -110 127 -143 249 -110 404 -487 726 -928 792 -106
16 -145 17 -296 4z m527 -543 c51 -21 76 -60 76 -118 0 -79 -47 -128 -125
-128 -76 0 -128 54 -128 133 0 46 26 85 74 109 41 22 59 22 103 4z"/>
<path d="M18554 6241 c-193 -31 -324 -136 -374 -299 -29 -93 -29 -351 0 -444
64 -207 234 -308 519 -308 263 0 420 80 504 258 32 66 32 69 35 244 3 143 1
187 -13 234 -46 159 -144 255 -306 300 -63 18 -290 27 -365 15z"/>
<path d="M9380 5230 c0 -934 -1 -960 -19 -960 -14 0 -23 14 -36 53 -71 220
-264 415 -506 511 -108 42 -186 57 -330 63 -658 28 -1096 -335 -1253 -1038
-52 -233 -61 -336 -60 -704 0 -301 3 -357 22 -485 67 -431 194 -724 406 -936
223 -222 508 -324 874 -311 168 5 258 25 388 86 117 55 189 107 279 203 79 83
155 207 185 300 8 27 17 38 31 38 18 0 19 -10 19 -280 l0 -280 465 0 465 0 0
2350 0 2350 -465 0 -465 0 0 -960z m-502 -1095 c247 -20 454 -182 492 -384 13
-72 13 -1110 0 -1181 -33 -176 -182 -315 -397 -371 -102 -26 -281 -29 -370 -6
-236 62 -402 252 -448 512 -22 126 -22 784 0 910 44 249 209 445 425 506 52
14 162 26 205 22 17 -1 58 -5 93 -8z"/>
<path d="M12312 4890 c-860 -107 -1350 -780 -1319 -1810 7 -217 22 -336 68
-519 96 -387 298 -686 597 -885 265 -177 558 -256 942 -256 353 0 647 63 915
194 176 87 367 226 439 320 l27 36 -233 290 -232 290 -71 -69 c-90 -90 -239
-200 -329 -245 -128 -65 -205 -80 -416 -80 -149 0 -199 3 -255 18 -157 42
-265 109 -346 216 -89 118 -139 279 -139 445 l0 85 1071 0 1072 0 -6 263 c-6
285 -19 396 -68 596 -76 307 -200 533 -401 727 -201 195 -444 315 -743 370
-105 19 -460 28 -573 14z m406 -691 c81 -16 182 -72 240 -132 102 -109 160
-269 169 -474 l6 -123 -587 0 -586 0 0 94 c0 114 34 257 82 348 68 129 207
243 338 278 97 26 228 30 338 9z"/>
<path d="M21136 4885 c-505 -72 -894 -347 -1102 -782 -229 -477 -255 -1203
-62 -1733 175 -481 558 -806 1082 -916 150 -32 457 -44 637 -25 433 45 799
200 1057 448 l92 88 -226 280 c-124 154 -229 284 -234 289 -5 5 -46 -25 -93
-67 -195 -173 -336 -257 -492 -294 -120 -27 -399 -25 -510 5 -126 35 -201 76
-280 156 -122 122 -180 269 -192 479 l-6 107 1072 0 1071 0 0 218 c0 130 -6
269 -15 346 -67 570 -293 964 -693 1208 -140 86 -310 148 -499 184 -123 22
-476 28 -607 9z m489 -700 c160 -54 280 -197 330 -394 18 -69 39 -296 30 -311
-4 -6 -232 -10 -592 -10 l-586 0 6 113 c16 300 157 515 392 598 110 38 312 40
420 4z"/>
<path d="M14554 4538 c106 -161 349 -529 540 -816 191 -288 348 -527 349 -531
1 -3 -238 -378 -532 -831 -294 -454 -541 -835 -549 -848 l-14 -22 487 2 488 3
306 540 c178 313 313 541 322 543 12 2 103 -145 334 -535 174 -296 320 -541
324 -546 4 -4 245 -6 535 -5 l527 3 -552 825 c-304 454 -552 830 -552 836 0 5
246 382 546 836 301 455 547 829 547 832 0 3 -220 6 -489 6 l-489 0 -302 -525
c-207 -359 -308 -525 -319 -525 -11 0 -117 169 -327 523 l-310 522 -532 3
-532 2 194 -292z"/>
<path d="M18230 3160 l0 -1670 470 0 470 0 0 1670 0 1670 -470 0 -470 0 0
-1670z"/>
</g>
</svg>
