<svg xmlns="http://www.w3.org/2000/svg" width="3200" height="1040" viewBox="0 0 2400 780" fill="#4655ff"><path d="M359.7 83.1c-33 2.7-56.5 18.1-78.8 51.8-17.6 26.6-27.4 55.7-30 89.2-1.2 16.9-2.6 21.5-7.9 26.3-4.3 3.9-4.9 4-27.6 8.4-17.3 3.3-32.5 7.9-48.2 14.3-29 12.1-39.3 22.9-48.7 51.2-6.3 19.2-16.4 55.4-17.6 63.7-2.4 16.4.3 37.7 7.2 58.5 6.6 19.6 23.4 50.2 38.8 70.4l5.9 7.7.4 13.5c.3 13.3.4 13.8 4 21 5.8 11.6 5.9 12.3 7.3 32.4l1.3 19-2.6 2.7c-3.9 4.2-4.3 12-.8 17.1 2.7 4 2.8 6.5.1 8.7-2.2 1.8-1.8 3.2.6 2.5l2.2-.7-2.1 2.8c-1.1 1.6-6.2 7.6-11.4 13.3-18.2 20.4-19.8 22.8-19.8 30.3 0 3.8 2.3 10.3 4.1 11.4.5.3 5-1.1 10.1-3 12.9-4.7 22-6 38.6-5.3 14.9.6 26 2.8 40 7.7l9.6 3.3c.5.1 1.4-1.6 2-3.8 3-11.2 14.5-20.5 33.6-27.1 3.6-1.3 6.6-2.9 6.8-3.7.5-2.4-3.8-6.6-10.2-9.7-5-2.5-8.4-3.3-16.2-4.1-27.5-2.5-46.2-8.7-58.7-19.3-4.6-3.8-4.9-4.3-4.4-7.9.8-5.5-.9-10.1-4.8-13.6-4.2-3.7-5.1-7.1-6.4-24.6-.9-11.3-.6-34.9.5-38.3.2-.8 1.9 0 5 2.4 19.2 14.6 61.7 23.7 117.9 25.3l23 .6.3 5c.3 5.2.3 5.2-6.3 14.1-.9 1.2-1.9 4.1-2.3 6.5-.7 4.1-1.4 4.9-9.7 11.2-5.5 4.1-15 9.7-24.3 14.4-9.4 4.6-17.1 9.2-20 11.8l-4.7 4.3 5 .6c13.2 1.7 33.7 8.7 59 20.3 13.1 6 14 6.3 15.2 4.6 5.2-7.4 12.5-11.9 25-15.5 7.1-2.1 9.8-2.3 31.5-2.3 27.3 0 25.5 1 19-10.4l-3.7-6.5-11.2-3.2c-6.2-1.8-15.7-5.2-21-7.6-11.3-5.1-29.2-15.4-29.8-17.1-.2-.7-.6-2.8-.9-4.8-.4-2.1-1.8-5.4-3.2-7.5-2.4-3.5-2.6-4.3-1.9-11.1l.7-7.3 8.6-4.6c30.2-16.2 43.5-24.2 58.8-35.7 38.3-28.7 57.8-65 56.1-104.7-1-25.9-8.2-43.9-32.6-81.5l-17.6-27.1c-5.9-9.2-17.2-21.1-30.5-32.2-8.9-7.5-11-9.8-13.9-15.5-3-5.8-3.4-7.6-3.4-14 0-5.7.5-8.2 2.2-11.3 4.6-8.1 11.1-10.6 40.9-15.5 19.7-3.2 20.6-3.3 32-2.1 21.1 2.1 47.8 10.3 58.4 17.9 6.7 4.8 22.9 11.8 34.6 14.9 7.7 2 13.3 2.7 27.3 3.3 17.6.8 17.6.8 25.6 4.5 8.6 4.1 12.5 4.3 15.6.8 4.3-5 2.2-11.7-6.3-19.4-6.1-5.6-12.6-9.8-38.5-24.8-28.9-16.8-47.4-29.8-60.1-42.4-8.7-8.7-11-12.7-14.3-24.9-11-40.4-48.7-72.6-92.8-79.2-10.6-1.6-14.5-1.7-29.6-.4zm52.7 54.3c5.1 2.1 7.6 6 7.6 11.8 0 7.9-4.7 12.8-12.5 12.8-7.6 0-12.8-5.4-12.8-13.3 0-4.6 2.6-8.5 7.4-10.9 4.1-2.2 5.9-2.2 10.3-.4zm1443 18.5c-19.3 3.1-32.4 13.6-37.4 29.9-2.9 9.3-2.9 35.1 0 44.4 6.4 20.7 23.4 30.8 51.9 30.8 26.3 0 42-8 50.4-25.8 3.2-6.6 3.2-6.9 3.5-24.4.3-14.3.1-18.7-1.3-23.4-4.6-15.9-14.4-25.5-30.6-30-6.3-1.8-29-2.7-36.5-1.5zM938 257c0 93.4-.1 96-1.9 96-1.4 0-2.3-1.4-3.6-5.3-7.1-22-26.4-41.5-50.6-51.1-10.8-4.2-18.6-5.7-33-6.3-65.8-2.8-109.6 33.5-125.3 103.8-5.2 23.3-6.1 33.6-6 70.4 0 30.1.3 35.7 2.2 48.5 6.7 43.1 19.4 72.4 40.6 93.6 22.3 22.2 50.8 32.4 87.4 31.1 16.8-.5 25.8-2.5 38.8-8.6 11.7-5.5 18.9-10.7 27.9-20.3 7.9-8.3 15.5-20.7 18.5-30 .8-2.7 1.7-3.8 3.1-3.8 1.8 0 1.9 1 1.9 28v28h46.5 46.5V396 161h-46.5H938v96zm-50.2 109.5c24.7 2 45.4 18.2 49.2 38.4 1.3 7.2 1.3 111 0 118.1-3.3 17.6-18.2 31.5-39.7 37.1-10.2 2.6-28.1 2.9-37 .6-23.6-6.2-40.2-25.2-44.8-51.2-2.2-12.6-2.2-78.4 0-91 4.4-24.9 20.9-44.5 42.5-50.6 5.2-1.4 16.2-2.6 20.5-2.2 1.7.1 5.8.5 9.3.8zm343.4-75.5c-86 10.7-135 78-131.9 181 .7 21.7 2.2 33.6 6.8 51.9 9.6 38.7 29.8 68.6 59.7 88.5 26.5 17.7 55.8 25.6 94.2 25.6 35.3 0 64.7-6.3 91.5-19.4 17.6-8.7 36.7-22.6 43.9-32l2.7-3.6-23.3-29-23.2-29-7.1 6.9c-9 9-23.9 20-32.9 24.5-12.8 6.5-20.5 8-41.6 8-14.9 0-19.9-.3-25.5-1.8-15.7-4.2-26.5-10.9-34.6-21.6-8.9-11.8-13.9-27.9-13.9-44.5V488h107.1 107.2l-.6-26.3c-.6-28.5-1.9-39.6-6.8-59.6-7.6-30.7-20-53.3-40.1-72.7-20.1-19.5-44.4-31.5-74.3-37-10.5-1.9-46-2.8-57.3-1.4zm40.6 69.1c8.1 1.6 18.2 7.2 24 13.2 10.2 10.9 16 26.9 16.9 47.4l.6 12.3h-58.7-58.6v-9.4c0-11.4 3.4-25.7 8.2-34.8 6.8-12.9 20.7-24.3 33.8-27.8 9.7-2.6 22.8-3 33.8-.9zm841.8-68.6c-50.5 7.2-89.4 34.7-110.2 78.2-22.9 47.7-25.5 120.3-6.2 173.3 17.5 48.1 55.8 80.6 108.2 91.6 15 3.2 45.7 4.4 63.7 2.5 43.3-4.5 79.9-20 105.7-44.8l9.2-8.8-22.6-28-23.4-28.9c-.5-.5-4.6 2.5-9.3 6.7-19.5 17.3-33.6 25.7-49.2 29.4-12 2.7-39.9 2.5-51-.5-12.6-3.5-20.1-7.6-28-15.6-12.2-12.2-18-26.9-19.2-47.9l-.6-10.7h107.2H2295v-21.8c0-13-.6-26.9-1.5-34.6-6.7-57-29.3-96.4-69.3-120.8-14-8.6-31-14.8-49.9-18.4-12.3-2.2-47.6-2.8-60.7-.9zm48.9 70c16 5.4 28 19.7 33 39.4 1.8 6.9 3.9 29.6 3 31.1-.4.6-23.2 1-59.2 1h-58.6l.6-11.3c1.6-30 15.7-51.5 39.2-59.8 11-3.8 31.2-4 42-.4zm-707.1-35.3l54 81.6 34.9 53.1c.1.3-23.8 37.8-53.2 83.1l-54.9 84.8-1.4 2.2 48.7-.2 48.8-.3 30.6-54c17.8-31.3 31.3-54.1 32.2-54.3 1.2-.2 10.3 14.5 33.4 53.5l32.4 54.6c.4.4 24.5.6 53.5.5l52.7-.3-55.2-82.5-55.2-83.6c0-.5 24.6-38.2 54.6-83.6l54.7-83.2c0-.3-22-.6-48.9-.6h-48.9l-30.2 52.5c-20.7 35.9-30.8 52.5-31.9 52.5s-11.7-16.9-32.7-52.3l-31-52.2-53.2-.3-53.2-.2 19.4 29.2zM1823 464v167h47 47V464 297h-47-47v167z"/></svg>